<mxfile host="app.diagrams.net" modified="2022-09-14T09:26:31.554Z" agent="5.0 (Windows NT 10.0; Win64; x64) AppleWebKit/537.36 (KHTML, like Gecko) Chrome/105.0.0.0 Safari/537.36 Edg/105.0.1343.33" etag="k45EGPRSE9XYuM09UCQf" version="20.3.0" type="github">
  <diagram id="C5RBs43oDa-KdzZeNtuy" name="Page-1">
    <mxGraphModel dx="1422" dy="804" grid="1" gridSize="10" guides="1" tooltips="1" connect="1" arrows="1" fold="1" page="1" pageScale="1" pageWidth="1169" pageHeight="827" math="0" shadow="0">
      <root>
        <mxCell id="WIyWlLk6GJQsqaUBKTNV-0" />
        <mxCell id="WIyWlLk6GJQsqaUBKTNV-1" parent="WIyWlLk6GJQsqaUBKTNV-0" />
        <mxCell id="WIyWlLk6GJQsqaUBKTNV-2" value="" style="rounded=0;html=1;jettySize=auto;orthogonalLoop=1;fontSize=11;endArrow=block;endFill=0;endSize=8;strokeWidth=1;shadow=0;labelBackgroundColor=none;edgeStyle=orthogonalEdgeStyle;" parent="WIyWlLk6GJQsqaUBKTNV-1" source="WIyWlLk6GJQsqaUBKTNV-3" target="WIyWlLk6GJQsqaUBKTNV-6" edge="1">
          <mxGeometry relative="1" as="geometry" />
        </mxCell>
        <mxCell id="NrJlkgKCJ5_zOp19GihY-3" value="" style="edgeStyle=orthogonalEdgeStyle;rounded=0;orthogonalLoop=1;jettySize=auto;html=1;" parent="WIyWlLk6GJQsqaUBKTNV-1" source="WIyWlLk6GJQsqaUBKTNV-3" target="NrJlkgKCJ5_zOp19GihY-1" edge="1">
          <mxGeometry relative="1" as="geometry" />
        </mxCell>
        <mxCell id="WIyWlLk6GJQsqaUBKTNV-3" value="RF TEST" style="rounded=1;whiteSpace=wrap;html=1;fontSize=12;glass=0;strokeWidth=1;shadow=0;" parent="WIyWlLk6GJQsqaUBKTNV-1" vertex="1">
          <mxGeometry x="90" y="270" width="120" height="40" as="geometry" />
        </mxCell>
        <mxCell id="WIyWlLk6GJQsqaUBKTNV-4" value="Yes" style="rounded=0;html=1;jettySize=auto;orthogonalLoop=1;fontSize=11;endArrow=block;endFill=0;endSize=8;strokeWidth=1;shadow=0;labelBackgroundColor=none;edgeStyle=orthogonalEdgeStyle;" parent="WIyWlLk6GJQsqaUBKTNV-1" source="WIyWlLk6GJQsqaUBKTNV-6" target="WIyWlLk6GJQsqaUBKTNV-10" edge="1">
          <mxGeometry y="20" relative="1" as="geometry">
            <mxPoint as="offset" />
          </mxGeometry>
        </mxCell>
        <mxCell id="WIyWlLk6GJQsqaUBKTNV-5" value="No" style="edgeStyle=orthogonalEdgeStyle;rounded=0;html=1;jettySize=auto;orthogonalLoop=1;fontSize=11;endArrow=block;endFill=0;endSize=8;strokeWidth=1;shadow=0;labelBackgroundColor=none;" parent="WIyWlLk6GJQsqaUBKTNV-1" source="WIyWlLk6GJQsqaUBKTNV-6" target="WIyWlLk6GJQsqaUBKTNV-7" edge="1">
          <mxGeometry y="10" relative="1" as="geometry">
            <mxPoint as="offset" />
          </mxGeometry>
        </mxCell>
        <mxCell id="WIyWlLk6GJQsqaUBKTNV-6" value="Chek Lock SFE100#1" style="rhombus;whiteSpace=wrap;html=1;shadow=0;fontFamily=Helvetica;fontSize=12;align=center;strokeWidth=1;spacing=6;spacingTop=-4;" parent="WIyWlLk6GJQsqaUBKTNV-1" vertex="1">
          <mxGeometry x="100" y="340" width="100" height="80" as="geometry" />
        </mxCell>
        <mxCell id="NrJlkgKCJ5_zOp19GihY-7" value="" style="edgeStyle=orthogonalEdgeStyle;rounded=0;orthogonalLoop=1;jettySize=auto;html=1;entryX=0.25;entryY=0;entryDx=0;entryDy=0;" parent="WIyWlLk6GJQsqaUBKTNV-1" source="WIyWlLk6GJQsqaUBKTNV-7" target="NrJlkgKCJ5_zOp19GihY-4" edge="1">
          <mxGeometry relative="1" as="geometry">
            <Array as="points">
              <mxPoint x="290" y="430" />
              <mxPoint x="390" y="430" />
            </Array>
          </mxGeometry>
        </mxCell>
        <mxCell id="WIyWlLk6GJQsqaUBKTNV-7" value="Lock SFE100#1" style="rounded=1;whiteSpace=wrap;html=1;fontSize=12;glass=0;strokeWidth=1;shadow=0;" parent="WIyWlLk6GJQsqaUBKTNV-1" vertex="1">
          <mxGeometry x="230" y="360" width="120" height="40" as="geometry" />
        </mxCell>
        <mxCell id="WIyWlLk6GJQsqaUBKTNV-8" value="No" style="rounded=0;html=1;jettySize=auto;orthogonalLoop=1;fontSize=11;endArrow=block;endFill=0;endSize=8;strokeWidth=1;shadow=0;labelBackgroundColor=none;edgeStyle=orthogonalEdgeStyle;entryX=0;entryY=0.5;entryDx=0;entryDy=0;" parent="WIyWlLk6GJQsqaUBKTNV-1" source="WIyWlLk6GJQsqaUBKTNV-10" target="WIyWlLk6GJQsqaUBKTNV-6" edge="1">
          <mxGeometry y="20" relative="1" as="geometry">
            <mxPoint as="offset" />
            <mxPoint x="150" y="610" as="targetPoint" />
            <Array as="points">
              <mxPoint x="70" y="540" />
              <mxPoint x="70" y="390" />
            </Array>
          </mxGeometry>
        </mxCell>
        <mxCell id="WIyWlLk6GJQsqaUBKTNV-9" value="Yes" style="edgeStyle=orthogonalEdgeStyle;rounded=0;html=1;jettySize=auto;orthogonalLoop=1;fontSize=11;endArrow=block;endFill=0;endSize=8;strokeWidth=1;shadow=0;labelBackgroundColor=none;" parent="WIyWlLk6GJQsqaUBKTNV-1" source="WIyWlLk6GJQsqaUBKTNV-10" target="WIyWlLk6GJQsqaUBKTNV-12" edge="1">
          <mxGeometry y="10" relative="1" as="geometry">
            <mxPoint as="offset" />
          </mxGeometry>
        </mxCell>
        <mxCell id="WIyWlLk6GJQsqaUBKTNV-10" value="Check time-out" style="rhombus;whiteSpace=wrap;html=1;shadow=0;fontFamily=Helvetica;fontSize=12;align=center;strokeWidth=1;spacing=6;spacingTop=-4;" parent="WIyWlLk6GJQsqaUBKTNV-1" vertex="1">
          <mxGeometry x="100" y="500" width="100" height="80" as="geometry" />
        </mxCell>
        <mxCell id="V2dxz-3RzxUJ-22-fnxF-6" value="" style="edgeStyle=orthogonalEdgeStyle;rounded=0;orthogonalLoop=1;jettySize=auto;html=1;" parent="WIyWlLk6GJQsqaUBKTNV-1" source="WIyWlLk6GJQsqaUBKTNV-12" target="V2dxz-3RzxUJ-22-fnxF-1" edge="1">
          <mxGeometry relative="1" as="geometry" />
        </mxCell>
        <mxCell id="WIyWlLk6GJQsqaUBKTNV-12" value="Unlock SFE100#1" style="rounded=1;whiteSpace=wrap;html=1;fontSize=12;glass=0;strokeWidth=1;shadow=0;" parent="WIyWlLk6GJQsqaUBKTNV-1" vertex="1">
          <mxGeometry x="90" y="650" width="120" height="40" as="geometry" />
        </mxCell>
        <mxCell id="NrJlkgKCJ5_zOp19GihY-1" value="CEL 1/2/3" style="rounded=1;whiteSpace=wrap;html=1;fontSize=12;glass=0;strokeWidth=1;shadow=0;" parent="WIyWlLk6GJQsqaUBKTNV-1" vertex="1">
          <mxGeometry x="90" y="200" width="120" height="40" as="geometry" />
        </mxCell>
        <mxCell id="NrJlkgKCJ5_zOp19GihY-8" value="" style="edgeStyle=orthogonalEdgeStyle;rounded=0;orthogonalLoop=1;jettySize=auto;html=1;entryX=0.5;entryY=0;entryDx=0;entryDy=0;" parent="WIyWlLk6GJQsqaUBKTNV-1" source="NrJlkgKCJ5_zOp19GihY-4" target="NrJlkgKCJ5_zOp19GihY-41" edge="1">
          <mxGeometry relative="1" as="geometry">
            <mxPoint x="370.0344827586207" y="530.0275862068966" as="targetPoint" />
          </mxGeometry>
        </mxCell>
        <mxCell id="r26XpOjbVCVyV8fwAi44-27" style="edgeStyle=orthogonalEdgeStyle;rounded=0;orthogonalLoop=1;jettySize=auto;html=1;" edge="1" parent="WIyWlLk6GJQsqaUBKTNV-1" source="NrJlkgKCJ5_zOp19GihY-4" target="r26XpOjbVCVyV8fwAi44-22">
          <mxGeometry relative="1" as="geometry" />
        </mxCell>
        <mxCell id="r26XpOjbVCVyV8fwAi44-30" style="edgeStyle=orthogonalEdgeStyle;rounded=0;orthogonalLoop=1;jettySize=auto;html=1;entryX=0.5;entryY=0;entryDx=0;entryDy=0;" edge="1" parent="WIyWlLk6GJQsqaUBKTNV-1" source="NrJlkgKCJ5_zOp19GihY-4" target="r26XpOjbVCVyV8fwAi44-1">
          <mxGeometry relative="1" as="geometry" />
        </mxCell>
        <mxCell id="NrJlkgKCJ5_zOp19GihY-4" value="XSL BOX" style="rounded=1;whiteSpace=wrap;html=1;fontSize=12;glass=0;strokeWidth=1;shadow=0;" parent="WIyWlLk6GJQsqaUBKTNV-1" vertex="1">
          <mxGeometry x="360" y="450" width="120" height="40" as="geometry" />
        </mxCell>
        <mxCell id="NrJlkgKCJ5_zOp19GihY-9" value="" style="rounded=0;html=1;jettySize=auto;orthogonalLoop=1;fontSize=11;endArrow=block;endFill=0;endSize=8;strokeWidth=1;shadow=0;labelBackgroundColor=none;edgeStyle=orthogonalEdgeStyle;" parent="WIyWlLk6GJQsqaUBKTNV-1" source="NrJlkgKCJ5_zOp19GihY-11" target="NrJlkgKCJ5_zOp19GihY-14" edge="1">
          <mxGeometry relative="1" as="geometry" />
        </mxCell>
        <mxCell id="NrJlkgKCJ5_zOp19GihY-10" value="" style="edgeStyle=orthogonalEdgeStyle;rounded=0;orthogonalLoop=1;jettySize=auto;html=1;" parent="WIyWlLk6GJQsqaUBKTNV-1" source="NrJlkgKCJ5_zOp19GihY-11" target="NrJlkgKCJ5_zOp19GihY-21" edge="1">
          <mxGeometry relative="1" as="geometry" />
        </mxCell>
        <mxCell id="NrJlkgKCJ5_zOp19GihY-11" value="RF TEST" style="rounded=1;whiteSpace=wrap;html=1;fontSize=12;glass=0;strokeWidth=1;shadow=0;" parent="WIyWlLk6GJQsqaUBKTNV-1" vertex="1">
          <mxGeometry x="500" y="270" width="120" height="40" as="geometry" />
        </mxCell>
        <mxCell id="NrJlkgKCJ5_zOp19GihY-12" value="Yes" style="rounded=0;html=1;jettySize=auto;orthogonalLoop=1;fontSize=11;endArrow=block;endFill=0;endSize=8;strokeWidth=1;shadow=0;labelBackgroundColor=none;edgeStyle=orthogonalEdgeStyle;" parent="WIyWlLk6GJQsqaUBKTNV-1" source="NrJlkgKCJ5_zOp19GihY-14" target="NrJlkgKCJ5_zOp19GihY-19" edge="1">
          <mxGeometry x="-0.5" y="20" relative="1" as="geometry">
            <mxPoint as="offset" />
          </mxGeometry>
        </mxCell>
        <mxCell id="r26XpOjbVCVyV8fwAi44-35" value="" style="edgeStyle=orthogonalEdgeStyle;rounded=0;orthogonalLoop=1;jettySize=auto;html=1;" edge="1" parent="WIyWlLk6GJQsqaUBKTNV-1" source="NrJlkgKCJ5_zOp19GihY-14" target="NrJlkgKCJ5_zOp19GihY-16">
          <mxGeometry relative="1" as="geometry" />
        </mxCell>
        <mxCell id="NrJlkgKCJ5_zOp19GihY-14" value="Chek Lock SFE100#2" style="rhombus;whiteSpace=wrap;html=1;shadow=0;fontFamily=Helvetica;fontSize=12;align=center;strokeWidth=1;spacing=6;spacingTop=-4;" parent="WIyWlLk6GJQsqaUBKTNV-1" vertex="1">
          <mxGeometry x="510" y="340" width="100" height="80" as="geometry" />
        </mxCell>
        <mxCell id="NrJlkgKCJ5_zOp19GihY-24" style="edgeStyle=orthogonalEdgeStyle;rounded=0;orthogonalLoop=1;jettySize=auto;html=1;entryX=0.5;entryY=0;entryDx=0;entryDy=0;" parent="WIyWlLk6GJQsqaUBKTNV-1" source="NrJlkgKCJ5_zOp19GihY-16" target="NrJlkgKCJ5_zOp19GihY-4" edge="1">
          <mxGeometry relative="1" as="geometry">
            <Array as="points">
              <mxPoint x="420" y="410" />
              <mxPoint x="420" y="410" />
            </Array>
          </mxGeometry>
        </mxCell>
        <mxCell id="NrJlkgKCJ5_zOp19GihY-16" value="Lock SFE100#2" style="rounded=1;whiteSpace=wrap;html=1;fontSize=12;glass=0;strokeWidth=1;shadow=0;" parent="WIyWlLk6GJQsqaUBKTNV-1" vertex="1">
          <mxGeometry x="360" y="360" width="120" height="40" as="geometry" />
        </mxCell>
        <mxCell id="NrJlkgKCJ5_zOp19GihY-17" value="No" style="rounded=0;html=1;jettySize=auto;orthogonalLoop=1;fontSize=11;endArrow=block;endFill=0;endSize=8;strokeWidth=1;shadow=0;labelBackgroundColor=none;edgeStyle=orthogonalEdgeStyle;entryX=1;entryY=0.5;entryDx=0;entryDy=0;exitX=1;exitY=0.5;exitDx=0;exitDy=0;" parent="WIyWlLk6GJQsqaUBKTNV-1" source="NrJlkgKCJ5_zOp19GihY-19" target="NrJlkgKCJ5_zOp19GihY-14" edge="1">
          <mxGeometry x="-0.6667" relative="1" as="geometry">
            <mxPoint as="offset" />
            <mxPoint x="560" y="610" as="targetPoint" />
            <Array as="points">
              <mxPoint x="640" y="540" />
              <mxPoint x="640" y="380" />
            </Array>
          </mxGeometry>
        </mxCell>
        <mxCell id="NrJlkgKCJ5_zOp19GihY-18" value="Yes" style="edgeStyle=orthogonalEdgeStyle;rounded=0;html=1;jettySize=auto;orthogonalLoop=1;fontSize=11;endArrow=block;endFill=0;endSize=8;strokeWidth=1;shadow=0;labelBackgroundColor=none;entryX=0.5;entryY=0;entryDx=0;entryDy=0;" parent="WIyWlLk6GJQsqaUBKTNV-1" source="NrJlkgKCJ5_zOp19GihY-19" target="V2dxz-3RzxUJ-22-fnxF-10" edge="1">
          <mxGeometry y="10" relative="1" as="geometry">
            <mxPoint as="offset" />
            <mxPoint x="560" y="590" as="targetPoint" />
          </mxGeometry>
        </mxCell>
        <mxCell id="NrJlkgKCJ5_zOp19GihY-19" value="Check time-out" style="rhombus;whiteSpace=wrap;html=1;shadow=0;fontFamily=Helvetica;fontSize=12;align=center;strokeWidth=1;spacing=6;spacingTop=-4;" parent="WIyWlLk6GJQsqaUBKTNV-1" vertex="1">
          <mxGeometry x="510" y="500" width="100" height="80" as="geometry" />
        </mxCell>
        <mxCell id="NrJlkgKCJ5_zOp19GihY-21" value="CEL 4/5/6" style="rounded=1;whiteSpace=wrap;html=1;fontSize=12;glass=0;strokeWidth=1;shadow=0;" parent="WIyWlLk6GJQsqaUBKTNV-1" vertex="1">
          <mxGeometry x="500" y="200" width="120" height="40" as="geometry" />
        </mxCell>
        <mxCell id="V2dxz-3RzxUJ-22-fnxF-3" value="" style="edgeStyle=orthogonalEdgeStyle;rounded=0;orthogonalLoop=1;jettySize=auto;html=1;entryX=1;entryY=0.5;entryDx=0;entryDy=0;startArrow=none;" parent="WIyWlLk6GJQsqaUBKTNV-1" source="V2dxz-3RzxUJ-22-fnxF-7" target="WIyWlLk6GJQsqaUBKTNV-12" edge="1">
          <mxGeometry relative="1" as="geometry">
            <mxPoint x="290" y="620" as="targetPoint" />
            <Array as="points">
              <mxPoint x="290" y="670" />
            </Array>
          </mxGeometry>
        </mxCell>
        <mxCell id="V2dxz-3RzxUJ-22-fnxF-9" value="" style="edgeStyle=orthogonalEdgeStyle;rounded=0;orthogonalLoop=1;jettySize=auto;html=1;" parent="WIyWlLk6GJQsqaUBKTNV-1" source="NrJlkgKCJ5_zOp19GihY-41" target="V2dxz-3RzxUJ-22-fnxF-7" edge="1">
          <mxGeometry relative="1" as="geometry" />
        </mxCell>
        <mxCell id="NrJlkgKCJ5_zOp19GihY-41" value="UPP400#1" style="rounded=1;whiteSpace=wrap;html=1;fontSize=12;glass=0;strokeWidth=1;shadow=0;" parent="WIyWlLk6GJQsqaUBKTNV-1" vertex="1">
          <mxGeometry x="230" y="536" width="120" height="44" as="geometry" />
        </mxCell>
        <mxCell id="V2dxz-3RzxUJ-22-fnxF-1" value="Finish Testfile" style="rounded=1;whiteSpace=wrap;html=1;fontSize=12;glass=0;strokeWidth=1;shadow=0;" parent="WIyWlLk6GJQsqaUBKTNV-1" vertex="1">
          <mxGeometry x="90" y="720" width="120" height="40" as="geometry" />
        </mxCell>
        <mxCell id="V2dxz-3RzxUJ-22-fnxF-7" value="Continue Testfile" style="rounded=1;whiteSpace=wrap;html=1;fontSize=12;glass=0;strokeWidth=1;shadow=0;" parent="WIyWlLk6GJQsqaUBKTNV-1" vertex="1">
          <mxGeometry x="230" y="600" width="120" height="40" as="geometry" />
        </mxCell>
        <mxCell id="V2dxz-3RzxUJ-22-fnxF-12" value="" style="edgeStyle=orthogonalEdgeStyle;rounded=0;orthogonalLoop=1;jettySize=auto;html=1;" parent="WIyWlLk6GJQsqaUBKTNV-1" source="V2dxz-3RzxUJ-22-fnxF-10" target="V2dxz-3RzxUJ-22-fnxF-11" edge="1">
          <mxGeometry relative="1" as="geometry" />
        </mxCell>
        <mxCell id="V2dxz-3RzxUJ-22-fnxF-10" value="Unlock SFE100#2" style="rounded=1;whiteSpace=wrap;html=1;fontSize=12;glass=0;strokeWidth=1;shadow=0;" parent="WIyWlLk6GJQsqaUBKTNV-1" vertex="1">
          <mxGeometry x="500" y="650" width="120" height="40" as="geometry" />
        </mxCell>
        <mxCell id="V2dxz-3RzxUJ-22-fnxF-11" value="Finish Testfile" style="rounded=1;whiteSpace=wrap;html=1;fontSize=12;glass=0;strokeWidth=1;shadow=0;" parent="WIyWlLk6GJQsqaUBKTNV-1" vertex="1">
          <mxGeometry x="500" y="720" width="120" height="40" as="geometry" />
        </mxCell>
        <mxCell id="r26XpOjbVCVyV8fwAi44-0" value="" style="edgeStyle=orthogonalEdgeStyle;rounded=0;orthogonalLoop=1;jettySize=auto;html=1;" edge="1" parent="WIyWlLk6GJQsqaUBKTNV-1" source="r26XpOjbVCVyV8fwAi44-1" target="r26XpOjbVCVyV8fwAi44-2">
          <mxGeometry relative="1" as="geometry" />
        </mxCell>
        <mxCell id="r26XpOjbVCVyV8fwAi44-1" value="UPP400#2" style="rounded=1;whiteSpace=wrap;html=1;fontSize=12;glass=0;strokeWidth=1;shadow=0;" vertex="1" parent="WIyWlLk6GJQsqaUBKTNV-1">
          <mxGeometry x="360" y="536" width="120" height="44" as="geometry" />
        </mxCell>
        <mxCell id="r26XpOjbVCVyV8fwAi44-36" style="edgeStyle=orthogonalEdgeStyle;rounded=0;orthogonalLoop=1;jettySize=auto;html=1;entryX=0;entryY=0.5;entryDx=0;entryDy=0;" edge="1" parent="WIyWlLk6GJQsqaUBKTNV-1" source="r26XpOjbVCVyV8fwAi44-2" target="V2dxz-3RzxUJ-22-fnxF-10">
          <mxGeometry relative="1" as="geometry">
            <Array as="points">
              <mxPoint x="420" y="670" />
            </Array>
          </mxGeometry>
        </mxCell>
        <mxCell id="r26XpOjbVCVyV8fwAi44-2" value="Continue Testfile" style="rounded=1;whiteSpace=wrap;html=1;fontSize=12;glass=0;strokeWidth=1;shadow=0;" vertex="1" parent="WIyWlLk6GJQsqaUBKTNV-1">
          <mxGeometry x="360" y="600" width="120" height="40" as="geometry" />
        </mxCell>
        <mxCell id="r26XpOjbVCVyV8fwAi44-8" value="" style="rounded=0;html=1;jettySize=auto;orthogonalLoop=1;fontSize=11;endArrow=block;endFill=0;endSize=8;strokeWidth=1;shadow=0;labelBackgroundColor=none;edgeStyle=orthogonalEdgeStyle;" edge="1" parent="WIyWlLk6GJQsqaUBKTNV-1" source="r26XpOjbVCVyV8fwAi44-10" target="r26XpOjbVCVyV8fwAi44-13">
          <mxGeometry relative="1" as="geometry" />
        </mxCell>
        <mxCell id="r26XpOjbVCVyV8fwAi44-9" value="" style="edgeStyle=orthogonalEdgeStyle;rounded=0;orthogonalLoop=1;jettySize=auto;html=1;" edge="1" parent="WIyWlLk6GJQsqaUBKTNV-1" source="r26XpOjbVCVyV8fwAi44-10" target="r26XpOjbVCVyV8fwAi44-17">
          <mxGeometry relative="1" as="geometry" />
        </mxCell>
        <mxCell id="r26XpOjbVCVyV8fwAi44-10" value="RF TEST" style="rounded=1;whiteSpace=wrap;html=1;fontSize=12;glass=0;strokeWidth=1;shadow=0;" vertex="1" parent="WIyWlLk6GJQsqaUBKTNV-1">
          <mxGeometry x="870" y="270" width="120" height="40" as="geometry" />
        </mxCell>
        <mxCell id="r26XpOjbVCVyV8fwAi44-11" value="Yes" style="rounded=0;html=1;jettySize=auto;orthogonalLoop=1;fontSize=11;endArrow=block;endFill=0;endSize=8;strokeWidth=1;shadow=0;labelBackgroundColor=none;edgeStyle=orthogonalEdgeStyle;" edge="1" parent="WIyWlLk6GJQsqaUBKTNV-1" source="r26XpOjbVCVyV8fwAi44-13" target="r26XpOjbVCVyV8fwAi44-16">
          <mxGeometry y="20" relative="1" as="geometry">
            <mxPoint as="offset" />
          </mxGeometry>
        </mxCell>
        <mxCell id="r26XpOjbVCVyV8fwAi44-29" value="" style="edgeStyle=orthogonalEdgeStyle;rounded=0;orthogonalLoop=1;jettySize=auto;html=1;" edge="1" parent="WIyWlLk6GJQsqaUBKTNV-1" source="r26XpOjbVCVyV8fwAi44-13" target="r26XpOjbVCVyV8fwAi44-25">
          <mxGeometry relative="1" as="geometry" />
        </mxCell>
        <mxCell id="r26XpOjbVCVyV8fwAi44-13" value="Chek Lock SFE100#3" style="rhombus;whiteSpace=wrap;html=1;shadow=0;fontFamily=Helvetica;fontSize=12;align=center;strokeWidth=1;spacing=6;spacingTop=-4;" vertex="1" parent="WIyWlLk6GJQsqaUBKTNV-1">
          <mxGeometry x="880" y="340" width="100" height="80" as="geometry" />
        </mxCell>
        <mxCell id="r26XpOjbVCVyV8fwAi44-14" value="No" style="rounded=0;html=1;jettySize=auto;orthogonalLoop=1;fontSize=11;endArrow=block;endFill=0;endSize=8;strokeWidth=1;shadow=0;labelBackgroundColor=none;edgeStyle=orthogonalEdgeStyle;entryX=1;entryY=0.5;entryDx=0;entryDy=0;exitX=1;exitY=0.5;exitDx=0;exitDy=0;" edge="1" parent="WIyWlLk6GJQsqaUBKTNV-1" source="r26XpOjbVCVyV8fwAi44-16" target="r26XpOjbVCVyV8fwAi44-13">
          <mxGeometry y="20" relative="1" as="geometry">
            <mxPoint as="offset" />
            <mxPoint x="930" y="610" as="targetPoint" />
            <Array as="points">
              <mxPoint x="1010" y="540" />
              <mxPoint x="1010" y="390" />
            </Array>
          </mxGeometry>
        </mxCell>
        <mxCell id="r26XpOjbVCVyV8fwAi44-15" value="Yes" style="edgeStyle=orthogonalEdgeStyle;rounded=0;html=1;jettySize=auto;orthogonalLoop=1;fontSize=11;endArrow=block;endFill=0;endSize=8;strokeWidth=1;shadow=0;labelBackgroundColor=none;entryX=0.5;entryY=0;entryDx=0;entryDy=0;" edge="1" parent="WIyWlLk6GJQsqaUBKTNV-1" source="r26XpOjbVCVyV8fwAi44-16" target="r26XpOjbVCVyV8fwAi44-19">
          <mxGeometry y="10" relative="1" as="geometry">
            <mxPoint as="offset" />
            <mxPoint x="930" y="590" as="targetPoint" />
          </mxGeometry>
        </mxCell>
        <mxCell id="r26XpOjbVCVyV8fwAi44-16" value="Check time-out" style="rhombus;whiteSpace=wrap;html=1;shadow=0;fontFamily=Helvetica;fontSize=12;align=center;strokeWidth=1;spacing=6;spacingTop=-4;" vertex="1" parent="WIyWlLk6GJQsqaUBKTNV-1">
          <mxGeometry x="880" y="500" width="100" height="80" as="geometry" />
        </mxCell>
        <mxCell id="r26XpOjbVCVyV8fwAi44-17" value="CEL 7/8/9" style="rounded=1;whiteSpace=wrap;html=1;fontSize=12;glass=0;strokeWidth=1;shadow=0;" vertex="1" parent="WIyWlLk6GJQsqaUBKTNV-1">
          <mxGeometry x="870" y="200" width="120" height="40" as="geometry" />
        </mxCell>
        <mxCell id="r26XpOjbVCVyV8fwAi44-18" value="" style="edgeStyle=orthogonalEdgeStyle;rounded=0;orthogonalLoop=1;jettySize=auto;html=1;" edge="1" parent="WIyWlLk6GJQsqaUBKTNV-1" source="r26XpOjbVCVyV8fwAi44-19" target="r26XpOjbVCVyV8fwAi44-20">
          <mxGeometry relative="1" as="geometry" />
        </mxCell>
        <mxCell id="r26XpOjbVCVyV8fwAi44-19" value="Unlock SFE100#3" style="rounded=1;whiteSpace=wrap;html=1;fontSize=12;glass=0;strokeWidth=1;shadow=0;" vertex="1" parent="WIyWlLk6GJQsqaUBKTNV-1">
          <mxGeometry x="870" y="650" width="120" height="40" as="geometry" />
        </mxCell>
        <mxCell id="r26XpOjbVCVyV8fwAi44-20" value="Finish Testfile" style="rounded=1;whiteSpace=wrap;html=1;fontSize=12;glass=0;strokeWidth=1;shadow=0;" vertex="1" parent="WIyWlLk6GJQsqaUBKTNV-1">
          <mxGeometry x="870" y="720" width="120" height="40" as="geometry" />
        </mxCell>
        <mxCell id="r26XpOjbVCVyV8fwAi44-21" value="" style="edgeStyle=orthogonalEdgeStyle;rounded=0;orthogonalLoop=1;jettySize=auto;html=1;" edge="1" parent="WIyWlLk6GJQsqaUBKTNV-1" source="r26XpOjbVCVyV8fwAi44-22" target="r26XpOjbVCVyV8fwAi44-23">
          <mxGeometry relative="1" as="geometry" />
        </mxCell>
        <mxCell id="r26XpOjbVCVyV8fwAi44-22" value="UPP400#3" style="rounded=1;whiteSpace=wrap;html=1;fontSize=12;glass=0;strokeWidth=1;shadow=0;" vertex="1" parent="WIyWlLk6GJQsqaUBKTNV-1">
          <mxGeometry x="740" y="536" width="120" height="44" as="geometry" />
        </mxCell>
        <mxCell id="r26XpOjbVCVyV8fwAi44-28" style="edgeStyle=orthogonalEdgeStyle;rounded=0;orthogonalLoop=1;jettySize=auto;html=1;entryX=0;entryY=0.5;entryDx=0;entryDy=0;" edge="1" parent="WIyWlLk6GJQsqaUBKTNV-1" source="r26XpOjbVCVyV8fwAi44-23" target="r26XpOjbVCVyV8fwAi44-19">
          <mxGeometry relative="1" as="geometry">
            <Array as="points">
              <mxPoint x="800" y="670" />
            </Array>
          </mxGeometry>
        </mxCell>
        <mxCell id="r26XpOjbVCVyV8fwAi44-23" value="Continue Testfile" style="rounded=1;whiteSpace=wrap;html=1;fontSize=12;glass=0;strokeWidth=1;shadow=0;" vertex="1" parent="WIyWlLk6GJQsqaUBKTNV-1">
          <mxGeometry x="740" y="600" width="120" height="40" as="geometry" />
        </mxCell>
        <mxCell id="r26XpOjbVCVyV8fwAi44-26" style="edgeStyle=orthogonalEdgeStyle;rounded=0;orthogonalLoop=1;jettySize=auto;html=1;" edge="1" parent="WIyWlLk6GJQsqaUBKTNV-1" source="r26XpOjbVCVyV8fwAi44-25" target="NrJlkgKCJ5_zOp19GihY-4">
          <mxGeometry relative="1" as="geometry">
            <Array as="points">
              <mxPoint x="780" y="430" />
              <mxPoint x="450" y="430" />
            </Array>
          </mxGeometry>
        </mxCell>
        <mxCell id="r26XpOjbVCVyV8fwAi44-25" value="Lock SFE100#3" style="rounded=1;whiteSpace=wrap;html=1;fontSize=12;glass=0;strokeWidth=1;shadow=0;" vertex="1" parent="WIyWlLk6GJQsqaUBKTNV-1">
          <mxGeometry x="740" y="360" width="120" height="40" as="geometry" />
        </mxCell>
      </root>
    </mxGraphModel>
  </diagram>
</mxfile>
